<?xml version="1.0" standalone="no"?>
<!DOCTYPE svg PUBLIC "-//W3C//DTD SVG 20010904//EN"
 "http://www.w3.org/TR/2001/REC-SVG-20010904/DTD/svg10.dtd">
<svg version="1.0" xmlns="http://www.w3.org/2000/svg"
 width="154.000000pt" height="178.000000pt" viewBox="0 0 154.000000 178.000000"
 preserveAspectRatio="xMidYMid meet">

<g transform="translate(0.000000,178.000000) scale(0.100000,-0.100000)"
fill="#000000" stroke="none">
<path d="M122 1677 c-12 -13 -22 -31 -22 -41 0 -13 -5 -16 -21 -11 -15 5 -29
-1 -50 -21 l-29 -28 0 -147 0 -148 48 -13 47 -14 3 -101 3 -101 49 -12 49 -12
3 -51 3 -51 48 -14 47 -13 0 -49 0 -49 48 -14 47 -14 3 -51 3 -50 49 -12 50
-12 0 -52 0 -51 153 -39 c83 -22 173 -45 199 -53 l47 -14 3 -151 3 -152 115
-28 c63 -15 128 -32 144 -38 26 -9 33 -7 58 17 34 33 37 60 6 65 -22 3 -23 7
-28 158 -3 85 -7 129 -8 98 -1 -32 -5 -58 -9 -58 -5 0 -25 5 -45 11 l-38 10 0
58 c0 48 4 61 25 81 25 23 25 26 25 179 l0 155 -30 -29 -30 -29 0 -154 c0
-141 -1 -153 -18 -148 -9 3 -51 16 -92 29 l-75 24 -5 304 -5 304 -3 -304 -2
-303 -37 7 c-21 4 -41 9 -45 11 -5 3 -9 166 -10 362 l-3 357 -2 -309 c-3 -288
-4 -308 -21 -301 -9 3 -29 9 -44 12 -26 5 -28 9 -30 62 l-2 56 -3 -49 -4 -48
-37 7 c-20 4 -40 9 -44 11 -5 3 -9 74 -10 157 -2 122 -3 132 -5 51 l-4 -101
-44 10 -45 10 -2 301 -3 301 -2 -247 c-2 -137 -7 -248 -11 -248 -4 0 -24 5
-44 11 l-38 10 -2 152 c-2 122 -3 132 -5 51 l-4 -102 -42 13 -42 12 -3 150 -3
150 45 -10 45 -10 4 -51 c2 -28 3 17 3 99 0 83 -1 129 -3 103 -4 -53 -3 -52
-55 -38 -36 10 -37 12 -41 63 -2 29 -4 -17 -5 -102 l-2 -153 -37 7 c-21 4 -41
9 -45 11 -5 3 -8 73 -8 157 0 149 0 151 26 178 l26 27 -38 11 c-56 15 -68 14
-92 -12z m935 -1283 c-3 -3 -12 -4 -19 -1 -8 3 -5 6 6 6 11 1 17 -2 13 -5z
m23 -106 c10 -6 2 -7 -25 -3 -22 4 -44 11 -50 17 -12 12 52 1 75 -14z m110
-28 c0 -4 -20 -3 -45 3 -25 6 -45 13 -45 17 0 4 20 3 45 -3 25 -6 45 -13 45
-17z m-105 -72 c7 -7 -2 -8 -30 -3 -22 3 -44 11 -50 17 -7 7 2 8 30 3 22 -3
45 -11 50 -17z m70 -18 c25 -11 -1 -11 -35 0 -20 6 -21 8 -5 8 11 0 29 -3 40
-8z"/>
<path d="M518 1573 c-23 -24 -28 -38 -28 -78 l0 -50 31 31 c27 27 30 36 27 78
l-3 48 -27 -29z"/>
<path d="M718 1413 c-22 -22 -28 -39 -28 -71 0 -48 7 -52 39 -18 18 19 22 33
19 71 l-3 47 -27 -29z"/>
<path d="M594 1270 c0 -85 2 -120 3 -77 2 42 2 112 0 155 -1 42 -3 7 -3 -78z"/>
<path d="M694 1195 c0 -55 1 -76 3 -47 2 29 2 74 0 100 -2 26 -3 2 -3 -53z"/>
<path d="M693 1040 c0 -30 2 -43 4 -27 2 15 2 39 0 55 -2 15 -4 2 -4 -28z"/>
<path d="M993 965 c0 -27 2 -38 4 -22 2 15 2 37 0 50 -2 12 -4 0 -4 -28z"/>
<path d="M992 813 c1 -55 3 -76 5 -47 3 39 10 57 28 74 14 13 25 31 25 41 0
14 -26 28 -52 29 -5 0 -7 -44 -6 -97z"/>
<path d="M994 615 c0 -55 1 -76 3 -47 2 29 2 74 0 100 -2 26 -3 2 -3 -53z"/>
<path d="M1418 323 c-22 -23 -28 -39 -28 -73 l0 -45 31 31 c26 26 30 37 27 73
l-3 43 -27 -29z"/>
<path d="M1293 280 c0 -30 2 -43 4 -27 2 15 2 39 0 55 -2 15 -4 2 -4 -28z"/>
</g>
</svg>
